<svg id="visual" viewBox="0 0 900 600" width="900" height="600" xmlns="http://www.w3.org/2000/svg" xmlns:xlink="http://www.w3.org/1999/xlink" version="1.1"><path d="M0 49L30 53C60 57 120 65 180 61C240 57 300 41 360 41C420 41 480 57 540 67C600 77 660 81 720 78C780 75 840 65 870 60L900 55L900 0L870 0C840 0 780 0 720 0C660 0 600 0 540 0C480 0 420 0 360 0C300 0 240 0 180 0C120 0 60 0 30 0L0 0Z" fill="#030714"></path><path d="M0 139L30 155C60 171 120 203 180 210C240 217 300 199 360 180C420 161 480 141 540 142C600 143 660 165 720 176C780 187 840 187 870 187L900 187L900 53L870 58C840 63 780 73 720 76C660 79 600 75 540 65C480 55 420 39 360 39C300 39 240 55 180 59C120 63 60 55 30 51L0 47Z" fill="#06122b"></path><path d="M0 187L30 200C60 213 120 239 180 242C240 245 300 225 360 212C420 199 480 193 540 201C600 209 660 231 720 237C780 243 840 233 870 228L900 223L900 185L870 185C840 185 780 185 720 174C660 163 600 141 540 140C480 139 420 159 360 178C300 197 240 215 180 208C120 201 60 169 30 153L0 137Z" fill="#001843"></path><path d="M0 439L30 437C60 435 120 431 180 410C240 389 300 351 360 344C420 337 480 361 540 383C600 405 660 425 720 415C780 405 840 365 870 345L900 325L900 221L870 226C840 231 780 241 720 235C660 229 600 207 540 199C480 191 420 197 360 210C300 223 240 243 180 240C120 237 60 211 30 198L0 185Z" fill="#001d5b"></path><path d="M0 469L30 467C60 465 120 461 180 438C240 415 300 373 360 365C420 357 480 383 540 405C600 427 660 445 720 437C780 429 840 395 870 378L900 361L900 323L870 343C840 363 780 403 720 413C660 423 600 403 540 381C480 359 420 335 360 342C300 349 240 387 180 408C120 429 60 433 30 435L0 437Z" fill="#042073"></path><path d="M0 559L30 551C60 543 120 527 180 515C240 503 300 495 360 497C420 499 480 511 540 516C600 521 660 519 720 515C780 511 840 505 870 502L900 499L900 359L870 376C840 393 780 427 720 435C660 443 600 425 540 403C480 381 420 355 360 363C300 371 240 413 180 436C120 459 60 463 30 465L0 467Z" fill="#19218a"></path><path d="M0 577L30 576C60 575 120 573 180 560C240 547 300 523 360 522C420 521 480 543 540 550C600 557 660 549 720 540C780 531 840 521 870 516L900 511L900 497L870 500C840 503 780 509 720 513C660 517 600 519 540 514C480 509 420 497 360 495C300 493 240 501 180 513C120 525 60 541 30 549L0 557Z" fill="#301f9f"></path><path d="M0 601L30 601C60 601 120 601 180 601C240 601 300 601 360 601C420 601 480 601 540 601C600 601 660 601 720 601C780 601 840 601 870 601L900 601L900 509L870 514C840 519 780 529 720 538C660 547 600 555 540 548C480 541 420 519 360 520C300 521 240 545 180 558C120 571 60 573 30 574L0 575Z" fill="#4a15b4"></path></svg>